<svg width="118" height="76" viewBox="0 0 118 76" fill="none" xmlns="http://www.w3.org/2000/svg">
<path opacity="0.07" d="M54 37.8859C54 44.2526 53.3167 49.7693 51.95 54.4359C50.5833 59.1026 48.6833 62.9693 46.25 66.0359C43.85 69.1026 40.9833 71.3859 37.65 72.8859C34.35 74.3859 30.7667 75.1359 26.9 75.1359C23.0333 75.1359 19.45 74.3859 16.15 72.8859C12.8833 71.3859 10.05 69.1026 7.65 66.0359C5.25 62.9693 3.36667 59.1026 2 54.4359C0.666667 49.7693 1.41561e-07 44.2526 1.41561e-07 37.8859C1.41561e-07 31.5193 0.666667 26.0026 2 21.3359C3.36667 16.6693 5.25 12.8026 7.65 9.73593C10.05 6.66927 12.8833 4.4026 16.15 2.93593C19.45 1.43593 23.0333 0.685935 26.9 0.685935C30.7667 0.685935 34.35 1.43593 37.65 2.93593C40.9833 4.4026 43.85 6.66927 46.25 9.73593C48.6833 12.8026 50.5833 16.6693 51.95 21.3359C53.3167 26.0026 54 31.5193 54 37.8859ZM38 37.8859C38 32.8526 37.6833 28.7359 37.05 25.5359C36.4167 22.3026 35.5667 19.7693 34.5 17.9359C33.4667 16.1026 32.2833 14.8526 30.95 14.1859C29.6167 13.4859 28.2667 13.1359 26.9 13.1359C25.5333 13.1359 24.1833 13.4859 22.85 14.1859C21.55 14.8526 20.3833 16.1026 19.35 17.9359C18.35 19.7693 17.5333 22.3026 16.9 25.5359C16.3 28.7359 16 32.8526 16 37.8859C16 42.9526 16.3 47.0859 16.9 50.2859C17.5333 53.4859 18.35 56.0193 19.35 57.8859C20.3833 59.7193 21.55 60.9859 22.85 61.6859C24.1833 62.3526 25.5333 62.6859 26.9 62.6859C28.2667 62.6859 29.6167 62.3526 30.95 61.6859C32.2833 60.9859 33.4667 59.7193 34.5 57.8859C35.5667 56.0193 36.4167 53.4859 37.05 50.2859C37.6833 47.0859 38 42.9526 38 37.8859ZM75.6078 63.1359H89.6078V26.3859C89.6078 24.5859 89.6578 22.7026 89.7578 20.7359L81.5078 27.5859C80.9745 28.0193 80.4411 28.3359 79.9078 28.5359C79.3745 28.7026 78.8578 28.7859 78.3578 28.7859C77.4911 28.7859 76.7078 28.6026 76.0078 28.2359C75.3411 27.8359 74.8411 27.4193 74.5078 26.9859L69.6078 20.4859L92.3078 1.43593H105.108V63.1359H117.108V74.3359H75.6078V63.1359Z" fill="#232F3E"/>
</svg>
