<svg width="19" height="20" viewBox="0 0 19 20" fill="none" xmlns="http://www.w3.org/2000/svg">
<path d="M5.46306 13.1685H16.4831C17.7326 13.1685 18.752 12.1491 18.752 10.8995V6.26299C18.752 6.25888 18.752 6.25066 18.752 6.24655C18.752 6.23422 18.752 6.226 18.752 6.21367C18.752 6.20544 18.752 6.19722 18.7479 6.189C18.7479 6.18078 18.7438 6.16845 18.7438 6.16023C18.7438 6.15201 18.7397 6.14379 18.7397 6.13557C18.7356 6.12735 18.7356 6.11913 18.7315 6.10679C18.7274 6.09857 18.7274 6.09035 18.7233 6.08213C18.7191 6.07391 18.7191 6.06569 18.715 6.05747C18.7109 6.04925 18.7068 6.04103 18.7027 6.0287C18.6986 6.02048 18.6945 6.01225 18.6904 6.00814C18.6863 5.99992 18.6822 5.9917 18.678 5.98348C18.6739 5.97526 18.6698 5.97115 18.6657 5.96293C18.6616 5.95471 18.6534 5.94649 18.6493 5.93827C18.6452 5.93005 18.641 5.92594 18.6328 5.91771C18.6287 5.90949 18.6205 5.90538 18.6164 5.89716C18.6123 5.88894 18.6041 5.88483 18.5999 5.87661C18.5958 5.86839 18.5876 5.86428 18.5835 5.86017C18.5753 5.85195 18.5712 5.84784 18.563 5.83962C18.5547 5.83551 18.5506 5.82729 18.5424 5.82318C18.5342 5.81907 18.526 5.81084 18.5177 5.80673C18.5095 5.80262 18.5054 5.79851 18.4972 5.7944C18.489 5.79029 18.4807 5.78618 18.4725 5.77796C18.4643 5.77385 18.4561 5.76974 18.4479 5.76563C18.4396 5.76152 18.4314 5.75741 18.4232 5.7533C18.415 5.74919 18.4068 5.74508 18.3985 5.74097C18.3903 5.73686 18.3821 5.73686 18.3739 5.73275C18.3657 5.72864 18.3533 5.72452 18.3451 5.72452C18.3369 5.72452 18.3287 5.72042 18.3245 5.72042C18.3122 5.7163 18.304 5.7163 18.2917 5.7163C18.2876 5.7163 18.2834 5.71219 18.2752 5.71219L4.30803 3.78441V1.83607C4.30803 1.81552 4.30803 1.79497 4.30392 1.77853C4.30392 1.77442 4.30392 1.7703 4.29981 1.76208C4.29981 1.74975 4.2957 1.73742 4.2957 1.72509C4.29159 1.71276 4.29159 1.70454 4.28748 1.69221C4.28748 1.68399 4.28337 1.67988 4.28337 1.67165C4.27926 1.65932 4.27515 1.64699 4.27104 1.63466C4.27104 1.63055 4.26693 1.62233 4.26693 1.61822C4.26282 1.60589 4.25871 1.59767 4.25048 1.58534C4.24637 1.58123 4.24637 1.573 4.24226 1.56889C4.23815 1.56067 4.23404 1.55245 4.22582 1.54423C4.22171 1.53601 4.2176 1.5319 4.21349 1.52368C4.20938 1.51546 4.20527 1.51135 4.20116 1.50313C4.19705 1.49491 4.18883 1.48669 4.18472 1.47847C4.18061 1.47435 4.1765 1.47024 4.17239 1.46613C4.16417 1.45791 4.15594 1.44969 4.14772 1.44147C4.14361 1.43736 4.1395 1.43325 4.13539 1.42914C4.12717 1.42092 4.11895 1.4127 4.10662 1.40448C4.10251 1.40037 4.09429 1.39626 4.09018 1.39215C4.08196 1.38393 4.07374 1.37982 4.06552 1.37159C4.05318 1.36337 4.04085 1.35515 4.03263 1.35104C4.02852 1.34693 4.02441 1.34693 4.0203 1.34282C4.00386 1.3346 3.98331 1.32638 3.96687 1.31816L0.937489 0.0439301C0.653871 -0.075272 0.329148 0.0562613 0.209946 0.33988C0.0907436 0.623499 0.222277 0.948222 0.505896 1.06742L3.19411 2.2019V4.71747V5.11618V8.17433V10.9078V14.3605C3.19411 15.5114 4.05729 16.465 5.17122 16.6089C4.96981 16.946 4.85061 17.3406 4.85061 17.7598C4.85061 18.9971 5.85766 20 7.09078 20C8.32391 20 9.33096 18.9929 9.33096 17.7598C9.33096 17.3488 9.21998 16.9583 9.02268 16.6295H14.0127C13.8154 16.9624 13.7044 17.3488 13.7044 17.7598C13.7044 18.9971 14.7115 20 15.9446 20C17.1777 20 18.1848 18.9929 18.1848 17.7598C18.1848 16.5267 17.1777 15.5196 15.9446 15.5196H5.46306C4.82183 15.5196 4.30392 14.9976 4.30392 14.3605V12.8561C4.64097 13.0534 5.03968 13.1685 5.46306 13.1685ZM8.22526 17.7557C8.22526 18.3805 7.71556 18.8861 7.09489 18.8861C6.47422 18.8861 5.96453 18.3764 5.96453 17.7557C5.96453 17.135 6.47422 16.6253 7.09489 16.6253C7.71556 16.6253 8.22526 17.1309 8.22526 17.7557ZM17.0791 17.7557C17.0791 18.3805 16.5694 18.8861 15.9487 18.8861C15.3281 18.8861 14.8184 18.3764 14.8184 17.7557C14.8184 17.135 15.3281 16.6253 15.9487 16.6253C16.5694 16.6253 17.0791 17.1309 17.0791 17.7557ZM16.4831 12.0587H5.46306C4.82183 12.0587 4.30392 11.5367 4.30392 10.8995V8.16611V5.10796V4.90244L17.6422 6.7398V10.8954C17.6422 11.5408 17.1202 12.0587 16.4831 12.0587Z" fill="white"/>
</svg>
