<svg width="26" height="9" viewBox="0 0 26 9" fill="none" xmlns="http://www.w3.org/2000/svg">
<path fill-rule="evenodd" clip-rule="evenodd" d="M7.57975 0.820312H6.42508L5.56419 2.81502L4.64027 0.820312H3.50646V3.5919L2.30963 0.820312H1.25984L0 3.75994H0.755874L1.02879 3.10894H2.49853L2.77144 3.75994H4.19932V1.45031L5.22811 3.75994H5.83695L6.86588 1.45031V3.75994H7.57975V0.820312ZM23.2437 3.75994H22.236L20.9132 1.55518V3.75994H19.4856L19.2124 3.10894H17.7427L17.4697 3.75994H16.6507C16.3148 3.75994 15.8738 3.67592 15.6221 3.42386C15.391 3.17196 15.265 2.83603 15.265 2.31106C15.265 1.8701 15.328 1.47116 15.6428 1.15624C15.8527 0.925185 16.2308 0.820312 16.7136 0.820312H17.3854V1.45031H16.7136C16.4618 1.45031 16.3146 1.49232 16.1677 1.61835C16.0417 1.74438 15.9787 1.97528 15.9787 2.2902C15.9787 2.60513 16.0417 2.83618 16.1677 2.98322C16.2726 3.08809 16.4618 3.1301 16.6505 3.1301H16.9656L17.9734 0.820465H19.0233L20.1992 3.59205V0.820312H21.2911L22.53 2.85703V0.820312H23.2437V3.75994ZM22.236 7.26655C22.068 7.11937 21.8159 7.0355 21.417 7.0355H21.0392C20.9358 7.0355 20.8526 7.01494 20.7699 6.99453L20.7663 6.99364C20.6821 6.95148 20.6194 6.88846 20.6194 6.78344C20.6194 6.67841 20.6403 6.6154 20.7243 6.55238C20.7873 6.51053 20.8712 6.51053 20.9972 6.51053H22.2991V5.88053H20.8923C20.1363 5.88053 19.8842 6.34249 19.8842 6.76259C19.8842 7.62717 20.6019 7.64575 21.2277 7.66194C21.2704 7.66305 21.3127 7.66414 21.3543 7.6655C21.48 7.6655 21.5642 7.68635 21.606 7.72851C21.6479 7.77037 21.6902 7.85424 21.6902 7.93841C21.6902 8.02228 21.6481 8.08529 21.606 8.12745C21.543 8.16931 21.4592 8.19016 21.3331 8.19016H19.9683V8.82016H21.3331C22.0468 8.82016 22.4459 8.52639 22.4459 7.89655C22.4459 7.60263 22.3621 7.41344 22.236 7.26655ZM25.1967 7.89655C25.1967 8.52655 24.7977 8.82016 24.0837 8.82016H22.7192V8.19016H24.0837C24.2097 8.19016 24.3148 8.16931 24.3569 8.12745C24.3988 8.08529 24.4408 8.02228 24.4408 7.93841C24.4408 7.85424 24.3989 7.77037 24.3569 7.72851C24.3148 7.68635 24.2309 7.6655 24.1049 7.6655C24.0632 7.66414 24.0208 7.66305 23.9781 7.66194C23.3526 7.64576 22.6351 7.6272 22.6351 6.76259C22.6351 6.34249 22.908 5.88053 23.6429 5.88053H25.0496V6.51053H23.7478C23.6221 6.51053 23.5379 6.51053 23.4749 6.55238C23.4119 6.6154 23.37 6.67841 23.37 6.78344C23.37 6.88846 23.433 6.95148 23.5169 6.99364L23.5187 6.99409C23.6023 7.0148 23.6858 7.0355 23.7901 7.0355H24.1679C24.5668 7.0355 24.8189 7.11937 24.9869 7.26655C25.1127 7.41344 25.1967 7.60263 25.1967 7.89655ZM17.8898 8.21147H19.5483V8.82031H17.1968V5.88084H19.5483V6.48967H17.8898V7.0358H19.5065V7.62349H17.8898V8.21147ZM16.4408 6.02787C16.2097 5.90184 15.9368 5.88068 15.5799 5.88068H13.9633V8.82016H14.677V7.74936H15.433C15.6848 7.74936 15.832 7.77052 15.937 7.87539C16.063 8.02228 16.063 8.27434 16.063 8.46338V8.82016H16.7557V8.25318C16.7557 7.98027 16.7349 7.85424 16.6509 7.70735C16.5878 7.62318 16.4621 7.51831 16.2941 7.45529C16.4828 7.39258 16.798 7.14052 16.798 6.67841C16.7979 6.34264 16.6719 6.1536 16.4408 6.02787ZM10.2046 5.88068H12.4514C12.9974 5.88068 13.6274 6.04872 13.6275 6.84661C13.6275 7.6655 13.0184 7.83354 12.4095 7.83354H11.5276V8.82016H10.1628L9.30185 7.85424L8.39894 8.82016H5.60619V5.88068H8.4408L9.3017 6.84661L10.2046 5.88068ZM15.8738 7.09867C15.7689 7.14052 15.6639 7.14052 15.5379 7.14052L14.677 7.16168V6.48952H15.5379C15.6639 6.48952 15.79 6.48952 15.8738 6.55254C15.958 6.5947 16.0207 6.67857 16.0207 6.8046C16.0207 6.93063 15.958 7.03565 15.8738 7.09867ZM11.5275 7.24555H12.4514C12.7033 7.24555 12.8713 7.09867 12.8713 6.84661C12.8713 6.5947 12.7034 6.48952 12.4514 6.48952H11.5275V7.24555ZM9.74265 7.35042L10.8345 6.19576V8.56841L9.74265 7.35042ZM6.29905 8.21147H8.04186L8.83974 7.35057L8.06286 6.48967H6.29905V7.0358H7.85281V7.62349H6.29905V8.21147ZM14.1943 0.820312H14.908V3.75994H14.1943V0.820312ZM13.4172 0.946342C13.1861 0.820312 12.9343 0.820312 12.5774 0.820312H10.9605V3.75994H11.6533V2.68899H12.4092C12.6613 2.68899 12.8293 2.71 12.9342 2.81502C13.045 2.94435 13.042 3.15492 13.0397 3.318V3.31808C13.0394 3.34039 13.0391 3.3618 13.0391 3.382V3.75994H13.7528V3.17196C13.7528 2.92005 13.7319 2.79402 13.627 2.64698C13.564 2.56296 13.438 2.45794 13.2911 2.39508C13.4799 2.31106 13.7951 2.08015 13.7951 1.6182C13.7952 1.28227 13.6481 1.09322 13.4172 0.946342ZM8.81874 3.1511H10.4565V3.76009H8.10487V0.820465H10.4565V1.4293H8.81874V1.95428H10.4355V2.56312H8.81874V3.1511ZM18.4775 1.32428L18.9606 2.4791H17.9947L18.4775 1.32428ZM12.8713 2.01729C12.7665 2.08031 12.6614 2.08031 12.5144 2.08031H11.6533V1.42946H12.5142C12.6403 1.42946 12.787 1.42946 12.8712 1.47147C12.955 1.53448 12.9972 1.6185 12.9972 1.74438C12.9972 1.87026 12.9552 1.97513 12.8713 2.01729ZM1.76366 1.32428L1.28069 2.4791H2.24662L1.76366 1.32428Z" fill="#1E74DF"/>
</svg>
