<svg width="50" height="50" viewBox="0 0 50 50" fill="none" xmlns="http://www.w3.org/2000/svg">
<path d="M16.3566 27.0392C16.6997 27.2244 17.0613 27.4052 17.4387 27.5833C16.6436 27.9431 15.7194 28.3439 15.0445 28.5754C9.28806 30.5462 4.20389 31.793 1.00402 32.4841C1.62188 34.6339 2.50742 36.6688 3.63079 38.5417H23.5049C24.1193 38.5417 24.6169 38.0367 24.6169 37.4133V33.4299C21.4846 33.1618 18.0136 32.0744 14.2213 30.1597C14.6232 30.027 15.0269 29.8916 15.4359 29.7518C16.4031 29.4205 17.7424 28.815 18.9711 28.2406C20.7843 28.9272 22.8704 29.4223 25.1198 29.4223C26.8935 29.4223 28.7681 29.1151 30.6884 28.351C33.6654 27.1674 35.2846 24.3773 34.5404 21.7172C34.2727 20.7625 33.7435 19.9512 33.0519 19.3234L33.0466 19.3109L32.9466 19.2254C32.9378 19.2183 32.929 19.2129 32.9203 19.2058C32.7605 19.0705 32.5947 18.9413 32.4191 18.8256C32.7544 18.5495 33.0853 18.2743 33.4135 17.9964C33.7136 19.1657 34.2165 20.3742 35.0599 21.3868C36.1254 22.6639 37.5612 23.4297 39.3332 23.6738C38.8154 25.6196 36.81 29.7429 32.6087 31.9622C30.6252 33.0104 28.4048 33.5136 25.9658 33.4913V37.4124C25.9658 38.0358 26.4635 38.5408 27.0778 38.5408H29.5984C30.0337 38.5408 30.326 38.0884 30.1531 37.6832L28.8138 34.5555C29.3097 34.4896 29.7906 34.3685 30.161 34.2581L31.8452 38.0207C31.9865 38.3368 32.2971 38.5399 32.6403 38.5399H46.3692C48.673 34.7007 50 30.1918 50 25.3676C50 11.3573 38.8075 0 25.0004 0C11.1934 0 0 11.3582 0 25.3685C0 27.5299 0.268559 29.628 0.769692 31.6318C5.42645 30.4812 12.4353 28.6342 16.3566 27.0392ZM35.9981 20.588C34.5018 18.7962 34.2385 16.1548 34.2227 14.6542L35.1372 15.3604C34.8897 18.1229 35.7594 20.0652 36.8179 21.3752C36.5186 21.1472 36.2456 20.8845 35.9981 20.588ZM43.1606 16.47L43.1228 15.6097C44.1058 16.0399 45.8795 16.8476 45.8251 17.0516C45.7803 17.2181 44.6727 17.1192 43.6485 17.0827L43.6143 17.0818C43.2764 17.0703 42.9517 17.0667 42.6761 17.0818L43.1606 16.47ZM42.2671 15.5519C42.0091 15.7166 41.7028 15.8644 41.4009 15.8796C40.6839 15.9143 40.0686 15.787 40.0686 15.787C39.9545 15.6124 39.6298 15.315 39.3025 15.2624C38.531 15.1377 37.9913 15.6845 37.9913 15.6845C37.9913 15.6845 38.3318 16.6098 38.9795 16.7149C39.2656 16.7612 39.6904 16.6793 39.8791 16.5974L39.8782 16.6C40.7664 16.2679 41.3877 16.5635 41.8599 16.9046C41.7642 17.0667 41.6554 17.2261 41.5106 17.3722C40.3425 18.5548 39.8808 20.0207 39.5736 22.1839C38.3406 21.4554 35.9832 19.5015 36.3703 15.4138C39.1936 13.297 41.601 14.835 42.2759 15.3631C42.2759 15.4174 42.2724 15.4842 42.2671 15.5519ZM39.1234 15.7362C39.1234 15.86 39.0242 15.9606 38.9022 15.9606C38.7803 15.9606 38.6811 15.86 38.6811 15.7362C38.6811 15.6124 38.7803 15.5118 38.9022 15.5118C39.0242 15.5118 39.1234 15.6124 39.1234 15.7362ZM41.1341 13.3869C39.7562 12.9247 37.8482 12.8187 35.7858 14.3006L34.1665 13.0494L33.4284 11.0091C35.0915 10.9672 38.969 11.1445 41.1341 13.3869ZM33.0238 15.4575C33.0449 15.8146 33.0826 16.2011 33.1397 16.6081C32.5104 17.1486 31.8636 17.6892 31.2054 18.2235C31.1606 18.2084 31.115 18.1968 31.0702 18.1826C30.9552 18.1461 30.8385 18.1158 30.72 18.0864C30.6709 18.0739 30.6235 18.057 30.5735 18.0463C31.5485 17.1504 32.3673 16.2857 33.0238 15.4575ZM25.0759 20.3128L28.1125 19.3323C28.1424 19.3234 28.1731 19.3198 28.2029 19.3118C28.3636 19.269 28.5233 19.2343 28.6839 19.2094C28.7058 19.2058 28.7278 19.2058 28.7488 19.2023C28.8252 19.1916 28.9024 19.1853 28.9788 19.1791C29.0674 19.1711 29.1569 19.1631 29.2456 19.1604C29.3509 19.1577 29.4562 19.1622 29.5615 19.1666C29.6607 19.1711 29.759 19.1782 29.8564 19.1898C29.9635 19.2014 30.0706 19.2147 30.1759 19.2352C30.2101 19.2414 30.2435 19.2521 30.2777 19.2593L31.7855 19.9557C31.8531 20.7207 31.7565 22.6567 29.2052 23.2579C27.7273 23.6061 25.8307 22.7449 23.6831 20.7634L25.0759 20.3128ZM22.357 21.1909C24.638 23.4333 26.7092 24.5759 28.5277 24.5759C28.8542 24.5759 29.1727 24.5394 29.4825 24.4664C30.5024 24.2259 31.2431 23.7967 31.7793 23.2775C31.2115 24.1377 30.1934 24.8137 28.7304 25.2848C25.6631 26.2733 21.5224 24.1279 18.8017 22.3379L22.357 21.1909ZM17.3132 22.8197C20.0892 24.7638 23.7542 26.7791 27.0269 26.7791C27.7422 26.7791 28.4382 26.683 29.1017 26.4692C31.1887 25.7969 32.5604 24.7211 33.1783 23.2739C33.3038 22.98 33.3863 22.6906 33.4433 22.4074C33.7918 24.3568 32.5218 26.2884 30.2435 27.1941C22.974 30.0849 16.1898 25.7194 13.8527 23.9374L17.3132 22.8197Z" fill="#232F3E"/>
<path d="M4.16663 39.5834C8.96142 45.9141 16.5073 50 25 50C33.4926 50 41.0385 45.9141 45.8333 39.5834H4.16663Z" fill="#1E74DF"/>
</svg>
