<svg width="27" height="29" viewBox="0 0 27 29" fill="none" xmlns="http://www.w3.org/2000/svg">
<path d="M7.69504 19.0943H23.7039C25.5191 19.0943 27 17.6162 27 15.8043V9.08134C27 9.07537 27 9.06345 27 9.05749C27 9.03961 27 9.02769 27 9.00981C27 8.99789 27 8.98597 26.994 8.97405C26.994 8.96213 26.9881 8.94425 26.9881 8.93233C26.9881 8.92041 26.9821 8.90849 26.9821 8.89657C26.9761 8.88465 26.9761 8.87273 26.9701 8.85485C26.9642 8.84293 26.9642 8.83101 26.9582 8.81909C26.9522 8.80717 26.9522 8.79525 26.9463 8.78333C26.9403 8.77141 26.9343 8.75949 26.9283 8.74161C26.9224 8.72969 26.9164 8.71777 26.9104 8.71181C26.9045 8.69989 26.8985 8.68797 26.8925 8.67605C26.8865 8.66413 26.8806 8.65817 26.8746 8.64625C26.8686 8.63433 26.8567 8.62241 26.8507 8.61049C26.8447 8.59857 26.8388 8.59261 26.8268 8.58069C26.8209 8.56877 26.8089 8.56281 26.803 8.55089C26.797 8.53897 26.785 8.533 26.7791 8.52108C26.7731 8.50916 26.7612 8.5032 26.7552 8.49724C26.7432 8.48532 26.7373 8.47936 26.7253 8.46744C26.7134 8.46148 26.7074 8.44956 26.6955 8.4436C26.6835 8.43764 26.6716 8.42572 26.6596 8.41976C26.6477 8.4138 26.6417 8.40784 26.6298 8.40188C26.6178 8.39592 26.6059 8.38996 26.594 8.37804C26.582 8.37208 26.5701 8.36612 26.5581 8.36016C26.5462 8.3542 26.5342 8.34824 26.5223 8.34228C26.5104 8.33632 26.4984 8.33036 26.4865 8.3244C26.4745 8.31844 26.4626 8.31844 26.4506 8.31248C26.4387 8.30652 26.4208 8.30056 26.4088 8.30056C26.3969 8.30056 26.385 8.2946 26.379 8.2946C26.3611 8.28864 26.3491 8.28864 26.3312 8.28864C26.3253 8.28864 26.3193 8.28268 26.3073 8.28268L6.01713 5.48739V2.6623C6.01713 2.6325 6.01713 2.6027 6.01116 2.57886C6.01116 2.5729 6.01116 2.56694 6.00518 2.55502C6.00518 2.53714 5.99921 2.51926 5.99921 2.50138C5.99324 2.4835 5.99324 2.47158 5.98727 2.4537C5.98727 2.44178 5.9813 2.43582 5.9813 2.4239C5.97533 2.40602 5.96936 2.38814 5.96339 2.37026C5.96339 2.3643 5.95741 2.35238 5.95741 2.34642C5.95144 2.32854 5.94547 2.31662 5.93353 2.29874C5.92756 2.29278 5.92756 2.28086 5.92159 2.2749C5.91562 2.26298 5.90964 2.25106 5.8977 2.23914C5.89173 2.22722 5.88576 2.22126 5.87979 2.20934C5.87382 2.19742 5.86785 2.19146 5.86188 2.17954C5.8559 2.16761 5.84396 2.15569 5.83799 2.14377C5.83202 2.13781 5.82605 2.13185 5.82008 2.12589C5.80813 2.11397 5.79619 2.10205 5.78425 2.09013C5.77828 2.08417 5.77231 2.07821 5.76634 2.07225C5.75439 2.06033 5.74245 2.04841 5.72454 2.03649C5.71856 2.03053 5.70662 2.02457 5.70065 2.01861C5.68871 2.00669 5.67677 2.00073 5.66482 1.98881C5.64691 1.97689 5.629 1.96497 5.61705 1.95901C5.61108 1.95305 5.60511 1.95305 5.59914 1.94709C5.57526 1.93517 5.5454 1.92325 5.52151 1.91133L1.12072 0.0636986C0.70871 -0.109144 0.236983 0.0815789 0.0638174 0.492826C-0.109348 0.904073 0.0817312 1.37492 0.493746 1.54776L4.39893 3.19275V6.84034V7.41847V11.8528V15.8162V20.8227C4.39893 22.4916 5.65288 23.8743 7.27108 24.0829C6.97849 24.5716 6.80533 25.1438 6.80533 25.7517C6.80533 27.5457 8.26828 29 10.0596 29C11.851 29 13.314 27.5398 13.314 25.7517C13.314 25.1557 13.1527 24.5895 12.8661 24.1127H20.1152C19.8286 24.5955 19.6673 25.1557 19.6673 25.7517C19.6673 27.5457 21.1303 29 22.9217 29C24.713 29 26.176 27.5398 26.176 25.7517C26.176 23.9637 24.713 22.5035 22.9217 22.5035H7.69504C6.76353 22.5035 6.01116 21.7466 6.01116 20.8227V18.6413C6.5008 18.9274 7.08 19.0943 7.69504 19.0943ZM11.7077 25.7458C11.7077 26.6517 10.9673 27.3848 10.0656 27.3848C9.16396 27.3848 8.42353 26.6458 8.42353 25.7458C8.42353 24.8458 9.16396 24.1068 10.0656 24.1068C10.9673 24.1068 11.7077 24.8398 11.7077 25.7458ZM24.5697 25.7458C24.5697 26.6517 23.8293 27.3848 22.9276 27.3848C22.026 27.3848 21.2855 26.6458 21.2855 25.7458C21.2855 24.8458 22.026 24.1068 22.9276 24.1068C23.8293 24.1068 24.5697 24.8398 24.5697 25.7458ZM23.7039 17.4851H7.69504C6.76353 17.4851 6.01116 16.7281 6.01116 15.8043V11.8409V7.40655V7.10854L25.3878 9.77271V15.7984C25.3878 16.7341 24.6294 17.4851 23.7039 17.4851Z" fill="#1E74DF"/>
</svg>
