<svg width="20" height="20" viewBox="0 0 20 20" fill="none" xmlns="http://www.w3.org/2000/svg">
<path d="M5.96306 13.1685H16.9831C18.2326 13.1685 19.252 12.1491 19.252 10.8995V6.26299C19.252 6.25888 19.252 6.25066 19.252 6.24655C19.252 6.23422 19.252 6.226 19.252 6.21367C19.252 6.20544 19.252 6.19722 19.2479 6.189C19.2479 6.18078 19.2438 6.16845 19.2438 6.16023C19.2438 6.15201 19.2397 6.14379 19.2397 6.13557C19.2356 6.12735 19.2356 6.11913 19.2315 6.10679C19.2274 6.09857 19.2274 6.09035 19.2233 6.08213C19.2191 6.07391 19.2191 6.06569 19.215 6.05747C19.2109 6.04925 19.2068 6.04103 19.2027 6.0287C19.1986 6.02048 19.1945 6.01225 19.1904 6.00814C19.1863 5.99992 19.1822 5.9917 19.178 5.98348C19.1739 5.97526 19.1698 5.97115 19.1657 5.96293C19.1616 5.95471 19.1534 5.94649 19.1493 5.93827C19.1452 5.93005 19.141 5.92594 19.1328 5.91771C19.1287 5.90949 19.1205 5.90538 19.1164 5.89716C19.1123 5.88894 19.1041 5.88483 19.0999 5.87661C19.0958 5.86839 19.0876 5.86428 19.0835 5.86017C19.0753 5.85195 19.0712 5.84784 19.063 5.83962C19.0547 5.83551 19.0506 5.82729 19.0424 5.82318C19.0342 5.81907 19.026 5.81084 19.0177 5.80673C19.0095 5.80262 19.0054 5.79851 18.9972 5.7944C18.989 5.79029 18.9807 5.78618 18.9725 5.77796C18.9643 5.77385 18.9561 5.76974 18.9479 5.76563C18.9396 5.76152 18.9314 5.75741 18.9232 5.7533C18.915 5.74919 18.9068 5.74508 18.8985 5.74097C18.8903 5.73686 18.8821 5.73686 18.8739 5.73275C18.8657 5.72864 18.8533 5.72452 18.8451 5.72452C18.8369 5.72452 18.8287 5.72042 18.8245 5.72042C18.8122 5.7163 18.804 5.7163 18.7917 5.7163C18.7876 5.7163 18.7834 5.71219 18.7752 5.71219L4.80803 3.78441V1.83607C4.80803 1.81552 4.80803 1.79497 4.80392 1.77853C4.80392 1.77442 4.80392 1.7703 4.79981 1.76208C4.79981 1.74975 4.7957 1.73742 4.7957 1.72509C4.79159 1.71276 4.79159 1.70454 4.78748 1.69221C4.78748 1.68399 4.78337 1.67988 4.78337 1.67165C4.77926 1.65932 4.77515 1.64699 4.77104 1.63466C4.77104 1.63055 4.76693 1.62233 4.76693 1.61822C4.76282 1.60589 4.75871 1.59767 4.75048 1.58534C4.74637 1.58123 4.74637 1.573 4.74226 1.56889C4.73815 1.56067 4.73404 1.55245 4.72582 1.54423C4.72171 1.53601 4.7176 1.5319 4.71349 1.52368C4.70938 1.51546 4.70527 1.51135 4.70116 1.50313C4.69705 1.49491 4.68883 1.48669 4.68472 1.47847C4.68061 1.47435 4.6765 1.47024 4.67239 1.46613C4.66417 1.45791 4.65594 1.44969 4.64772 1.44147C4.64361 1.43736 4.6395 1.43325 4.63539 1.42914C4.62717 1.42092 4.61895 1.4127 4.60662 1.40448C4.60251 1.40037 4.59429 1.39626 4.59018 1.39215C4.58196 1.38393 4.57374 1.37982 4.56552 1.37159C4.55318 1.36337 4.54085 1.35515 4.53263 1.35104C4.52852 1.34693 4.52441 1.34693 4.5203 1.34282C4.50386 1.3346 4.48331 1.32638 4.46687 1.31816L1.43749 0.0439301C1.15387 -0.075272 0.829148 0.0562613 0.709946 0.33988C0.590744 0.623499 0.722277 0.948222 1.0059 1.06742L3.69411 2.2019V4.71747V5.11618V8.17433V10.9078V14.3605C3.69411 15.5114 4.55729 16.465 5.67122 16.6089C5.46981 16.946 5.35061 17.3406 5.35061 17.7598C5.35061 18.9971 6.35766 20 7.59078 20C8.82391 20 9.83096 18.9929 9.83096 17.7598C9.83096 17.3488 9.71998 16.9583 9.52268 16.6295H14.5127C14.3154 16.9624 14.2044 17.3488 14.2044 17.7598C14.2044 18.9971 15.2115 20 16.4446 20C17.6777 20 18.6848 18.9929 18.6848 17.7598C18.6848 16.5267 17.6777 15.5196 16.4446 15.5196H5.96306C5.32183 15.5196 4.80392 14.9976 4.80392 14.3605V12.8561C5.14097 13.0534 5.53968 13.1685 5.96306 13.1685ZM8.72526 17.7557C8.72526 18.3805 8.21556 18.8861 7.59489 18.8861C6.97422 18.8861 6.46453 18.3764 6.46453 17.7557C6.46453 17.135 6.97422 16.6253 7.59489 16.6253C8.21556 16.6253 8.72526 17.1309 8.72526 17.7557ZM17.5791 17.7557C17.5791 18.3805 17.0694 18.8861 16.4487 18.8861C15.8281 18.8861 15.3184 18.3764 15.3184 17.7557C15.3184 17.135 15.8281 16.6253 16.4487 16.6253C17.0694 16.6253 17.5791 17.1309 17.5791 17.7557ZM16.9831 12.0587H5.96306C5.32183 12.0587 4.80392 11.5367 4.80392 10.8995V8.16611V5.10796V4.90244L18.1422 6.7398V10.8954C18.1422 11.5408 17.6202 12.0587 16.9831 12.0587Z" fill="white"/>
</svg>
