<svg width="14" height="16" viewBox="0 0 14 16" fill="none" xmlns="http://www.w3.org/2000/svg">
<path d="M12.6917 0.411067C12.4484 0.299006 12.1618 0.342613 11.9629 0.52188L10.9132 1.45131C10.8846 1.47673 10.8416 1.47657 10.8132 1.45101L9.38493 0.173594C9.12662 -0.0578648 8.73556 -0.0578648 8.47724 0.173594L7.05029 1.44984C7.02158 1.47548 6.9782 1.47548 6.9495 1.44984L5.52239 0.173594C5.26408 -0.057827 4.87302 -0.057827 4.61471 0.173594L3.18628 1.45101C3.15769 1.47657 3.1145 1.47669 3.08576 1.45127L2.03511 0.52188C1.75638 0.274007 1.32946 0.299006 1.08159 0.57774C0.970438 0.702736 0.909623 0.864531 0.910909 1.03177V14.9683C0.908413 15.3419 1.20923 15.6467 1.58282 15.6492C1.75018 15.6504 1.91197 15.5894 2.037 15.4782L3.0867 14.5487C3.11526 14.5233 3.15833 14.5235 3.18674 14.549L4.61498 15.8264C4.87329 16.0579 5.26435 16.0579 5.52266 15.8264L6.94976 14.5502C6.97847 14.5246 7.02185 14.5246 7.05055 14.5502L8.47766 15.8264C8.73601 16.0578 9.12703 16.0578 9.38534 15.8264L10.8138 14.549C10.8424 14.5234 10.8856 14.5233 10.9144 14.5487L11.965 15.4781C12.2439 15.7259 12.6707 15.7007 12.9185 15.4218C13.0295 15.297 13.0902 15.1354 13.089 14.9683V1.03177C13.0926 0.764042 12.9363 0.519913 12.6917 0.411067ZM3.41487 5.42825H7.18122C7.34831 5.42825 7.48378 5.56372 7.48378 5.73081C7.48378 5.8979 7.34831 6.03337 7.18122 6.03337H3.41487C3.24778 6.03337 3.11231 5.8979 3.11231 5.73081C3.11231 5.56372 3.24778 5.42825 3.41487 5.42825ZM10.585 10.5718H3.41487C3.24778 10.5718 3.11231 10.4363 3.11231 10.2692C3.11231 10.1021 3.24778 9.96667 3.41487 9.96667H10.585C10.7521 9.96667 10.8876 10.1021 10.8876 10.2692C10.8876 10.4363 10.7521 10.5718 10.585 10.5718ZM10.585 8.30258H3.41487C3.24778 8.30258 3.11231 8.16711 3.11231 8.00002C3.11231 7.83293 3.24778 7.69746 3.41487 7.69746H10.585C10.7521 7.69746 10.8876 7.83293 10.8876 8.00002C10.8876 8.16711 10.7521 8.30258 10.585 8.30258Z" fill="white"/>
</svg>
