<svg width="19" height="13" viewBox="0 0 19 13" fill="none" xmlns="http://www.w3.org/2000/svg">
<path fill-rule="evenodd" clip-rule="evenodd" d="M7.08971 6.67299C7.08971 4.83607 7.93841 3.20061 9.25983 2.14222C8.28542 1.36176 7.05453 0.894531 5.71493 0.894531C2.55869 0.894531 0 3.48166 0 6.67299C0 9.86432 2.55869 12.4514 5.71493 12.4514C7.05453 12.4514 8.28542 11.9842 9.25983 11.2038C7.93841 10.1454 7.08971 8.5099 7.08971 6.67299Z" fill="#EB001B"/>
<path fill-rule="evenodd" clip-rule="evenodd" d="M7.08984 6.67286C7.08984 8.50978 7.93854 10.1452 9.25996 11.2036C10.5813 10.1452 11.43 8.50978 11.43 6.67286C11.43 4.83595 10.5813 3.20048 9.25996 2.14209C7.93854 3.20048 7.08984 4.83595 7.08984 6.67286Z" fill="#FF5E00"/>
<path fill-rule="evenodd" clip-rule="evenodd" d="M12.8065 0.894531C11.4669 0.894531 10.2361 1.36176 9.26172 2.14222C10.5831 3.20068 11.4318 4.83607 11.4318 6.67299C11.4318 8.5099 10.5831 10.1454 9.26172 11.2038C10.2361 11.9842 11.4669 12.4514 12.8065 12.4514C15.9628 12.4514 18.5215 9.86432 18.5215 6.67299C18.5215 3.48166 15.9628 0.894531 12.8065 0.894531Z" fill="#F79E1C"/>
</svg>
