<svg width="10" height="13" viewBox="0 0 10 13" fill="none" xmlns="http://www.w3.org/2000/svg">
<path d="M8.50987 1.72817C7.96377 1.09513 6.9766 0.82373 5.71372 0.82373H2.04849C1.79036 0.82374 1.57055 1.01462 1.5301 1.2739L0.00396035 11.1177C-0.0263742 11.3118 0.121419 11.4876 0.31487 11.4876H2.57766L3.14594 7.82174L3.1283 7.93653C3.16879 7.67741 3.3867 7.48629 3.64474 7.48629H4.72001C6.83238 7.48629 8.48639 6.6137 8.96955 4.08948C8.9839 4.01483 8.99632 3.94216 9.00706 3.87117C8.94608 3.83833 8.94608 3.83833 9.00706 3.87117C9.15094 2.9382 9.00608 2.30313 8.50987 1.72817Z" fill="#27346A"/>
<path d="M4.01177 3.53509C4.07363 3.50513 4.14129 3.4896 4.20981 3.48965H7.08328C7.42355 3.48965 7.74093 3.51217 8.03095 3.55964C8.1121 3.5728 8.19284 3.58851 8.27304 3.60675C8.3867 3.63226 8.49906 3.66348 8.60969 3.7003C8.75227 3.74873 8.88506 3.80513 9.0071 3.87117C9.15093 2.93784 9.00608 2.30313 8.50987 1.72817C7.96346 1.09513 6.9766 0.82373 5.71372 0.82373H2.04817C1.7901 0.82373 1.57054 1.01481 1.5301 1.2739L0.00396056 11.1173C-0.026374 11.3118 0.121419 11.4873 0.314557 11.4873H2.57766L3.75667 3.88345C3.7802 3.73173 3.87558 3.60148 4.01177 3.53509Z" fill="#27346A"/>
<path d="M8.9696 4.0894C8.48644 6.61326 6.83246 7.48621 4.72005 7.48621H3.64447C3.38643 7.48621 3.16848 7.67733 3.12839 7.93645L2.42141 12.4945C2.39499 12.6644 2.52417 12.8183 2.69316 12.8183H4.60064C4.82637 12.8183 5.01854 12.6513 5.05381 12.4245L5.07239 12.3257L5.4319 10.0084L5.45506 9.88037C5.49033 9.65363 5.68248 9.48664 5.9082 9.48656H6.19367C8.04146 9.48656 9.48831 8.72311 9.91111 6.51509C10.0876 5.59236 9.99627 4.82197 9.52942 4.28084C9.38782 4.11694 9.21196 3.98158 9.00711 3.87109C8.99602 3.94244 8.98398 4.01474 8.9696 4.0894Z" fill="#2790C3"/>
<path d="M8.50169 3.66628C8.42636 3.64391 8.35031 3.6241 8.27367 3.60689C8.19343 3.58895 8.1127 3.57334 8.03159 3.5601C7.74125 3.51231 7.42411 3.48975 7.08353 3.48975H4.21041C4.14184 3.48959 4.07413 3.50525 4.01237 3.53555C3.87602 3.60174 3.78055 3.73209 3.75723 3.88391L3.14654 7.82188L3.12891 7.93667C3.16908 7.67755 3.38699 7.48643 3.64506 7.48643H4.72065C6.83302 7.48643 8.487 6.61384 8.97016 4.08962C8.98454 4.01497 8.99661 3.94262 9.0077 3.87132C8.88534 3.80563 8.75291 3.74887 8.61029 3.70076C8.57431 3.68863 8.53811 3.67713 8.50173 3.66628" fill="#1F264F"/>
</svg>
