<svg width="24" height="22" viewBox="0 0 24 22" fill="none" xmlns="http://www.w3.org/2000/svg">
<path d="M23.8936 12.0042C23.3665 11.0925 22.8375 10.1623 22.3259 9.26268C21.8043 8.34534 21.2648 7.39678 20.7253 6.46424C20.6255 6.29348 20.4546 6.19556 20.2564 6.19556H13.8364C13.6344 6.19556 13.4673 6.29095 13.3652 6.46565L12.0335 8.76801C11.9362 8.93615 11.9937 9.15131 12.1619 9.24862C12.3301 9.34584 12.5452 9.28846 12.6425 9.12023L13.9273 6.89906H20.1642C20.686 7.80196 21.2085 8.72095 21.7144 9.61045C22.2195 10.4988 22.7417 11.4169 23.2627 12.3187C22.2712 14.0324 21.2796 15.7451 20.2882 17.4576L20.1635 17.6729H13.9279C13.2082 16.4297 12.489 15.1866 11.7696 13.943L10.8107 12.2854L11.8266 10.5302C11.9239 10.3621 11.8665 10.1469 11.6983 10.0496C11.5303 9.9524 11.315 10.0097 11.2177 10.1778L10.1544 12.0147C10.0549 12.1884 10.0555 12.3867 10.1552 12.5572L11.1607 14.2952C11.8955 15.5655 12.6301 16.8353 13.3645 18.1038C13.4652 18.2796 13.6328 18.3764 13.8364 18.3764H20.2564C20.4561 18.3764 20.6277 18.2771 20.726 18.1052L20.897 17.8101C21.9105 16.0596 22.924 14.3091 23.9367 12.5587C24.0773 12.3183 23.9444 12.0912 23.8936 12.0042Z" fill="#232F3E"/>
<path d="M17.053 16.0914C17.6991 16.0914 18.3537 15.9276 18.9524 15.5827C19.8358 15.0732 20.4673 14.251 20.7305 13.2675C20.9931 12.2864 20.8575 11.2619 20.3489 10.3827C19.2973 8.56523 16.9602 7.94015 15.1392 8.98908C15.1391 8.98912 15.139 8.98917 15.139 8.98917C14.2553 9.49889 13.6239 10.3213 13.3609 11.3049C13.0986 12.286 13.2347 13.3104 13.7439 14.1892C14.4495 15.4089 15.7339 16.0914 17.053 16.0914ZM14.0405 11.4866C14.2549 10.6849 14.7697 10.0144 15.4902 9.59869C16.9759 8.74298 18.8823 9.25265 19.7399 10.7349C20.1545 11.4514 20.2649 12.2862 20.0509 13.0855C19.8363 13.8873 19.3214 14.5577 18.6012 14.9731C18.1127 15.2545 17.5789 15.3882 17.0517 15.3882C15.976 15.3881 14.9282 14.8313 14.3527 13.8367C13.9377 13.1205 13.8269 12.2859 14.0405 11.4866Z" fill="#232F3E"/>
<path d="M9.66187 6.1608C10.1785 6.1608 10.5989 5.74108 10.5989 5.22517V3.17547C10.5989 1.53006 9.25702 0.191406 7.60763 0.191406H2.98992C1.34128 0.191406 0 1.53006 0 3.17547V5.22517C0 5.74108 0.419719 6.1608 0.935625 6.1608H2.50481V7.92362L1.77745 8.03364C1.58536 8.0627 1.45322 8.242 1.48228 8.43409C1.50867 8.60837 1.65863 8.73325 1.82963 8.73325C1.84711 8.73325 1.86488 8.73194 1.88269 8.72926L2.50477 8.63514V10.0397L1.77741 10.1498C1.58531 10.1789 1.45317 10.3582 1.48228 10.5503C1.50867 10.7245 1.65862 10.8494 1.82958 10.8494C1.84711 10.8494 1.86488 10.8481 1.88269 10.8454L2.50472 10.7512V12.1546L1.77736 12.2646C1.58527 12.2937 1.45312 12.473 1.48219 12.6651C1.50858 12.8393 1.65853 12.9643 1.82953 12.9643C1.84702 12.9643 1.86478 12.963 1.88259 12.9603L2.50467 12.8662V14.2708L1.77731 14.3808C1.58522 14.4099 1.45308 14.5892 1.48214 14.7813C1.50853 14.9556 1.65848 15.0805 1.82948 15.0805C1.84697 15.0805 1.86473 15.0792 1.88255 15.0765L2.50462 14.9824V16.3869L1.77727 16.4971C1.58517 16.5261 1.45303 16.7054 1.48214 16.8975C1.50853 17.0717 1.65848 17.1967 1.82944 17.1967C1.84697 17.1967 1.86473 17.1954 1.88255 17.1926L2.50458 17.0984V18.2175L2.50453 18.2322C2.50402 18.3874 2.53402 18.4727 2.63194 18.5961L4.97948 21.5768C5.0955 21.7242 5.27423 21.8087 5.46975 21.8087H5.4698C5.66531 21.8087 5.84405 21.7242 5.96006 21.5769L8.30803 18.5973C8.40694 18.4728 8.43694 18.3876 8.43642 18.2323V16.1999L8.81986 16.1418C9.01195 16.1128 9.14409 15.9335 9.11498 15.7414C9.08592 15.5492 8.90588 15.4172 8.71453 15.4463L8.43647 15.4884V14.085L8.81986 14.027C9.01195 13.9979 9.14409 13.8186 9.11503 13.6265C9.08597 13.4344 8.90644 13.3024 8.71458 13.3314L8.43647 13.3734V11.9688L8.81986 11.9108C9.01195 11.8817 9.14409 11.7024 9.11503 11.5104C9.08597 11.3182 8.90644 11.1863 8.71458 11.2152L8.43642 11.2572V9.85262L8.81986 9.79455C9.01195 9.76548 9.14409 9.58619 9.11498 9.39409C9.08592 9.202 8.90588 9.07 8.71453 9.09897L8.43642 9.14111V7.73772L8.81981 7.67973C9.01191 7.65067 9.14405 7.47137 9.11498 7.27928C9.08592 7.08723 8.90639 6.95537 8.71453 6.98411L8.43637 7.0262V6.16075H9.66187V6.1608ZM7.73306 18.1906L5.47008 21.0624L3.20831 18.1906V16.9919L7.73306 16.3065V18.1906ZM7.73306 15.595L3.20831 16.2804V14.876L7.73306 14.1915V15.595ZM7.73306 13.4799L3.20831 14.1644V12.7598L7.73306 12.0753V13.4799ZM7.73306 11.3637L3.20831 12.0482V10.6446L7.73306 9.95926V11.3637ZM7.73306 9.24775L3.20831 9.93311V8.52873L7.73306 7.84422V9.24775ZM7.73306 7.1327L3.20831 7.81717V6.1608H4.59488C4.78917 6.1608 4.94662 6.00334 4.94662 5.80905C4.94662 5.61475 4.78917 5.4573 4.59488 5.4573H0.935625C0.809812 5.4573 0.7035 5.35098 0.7035 5.22517V3.17547C0.7035 1.91795 1.72917 0.894953 2.98988 0.894953H7.60758C8.86903 0.894953 9.89531 1.918 9.89531 3.17547V5.22517C9.89531 5.35098 9.78839 5.4573 9.66187 5.4573H6.3172C6.12291 5.4573 5.96545 5.61475 5.96545 5.80905C5.96545 6.00334 6.12291 6.1608 6.3172 6.1608H7.73306V7.1327Z" fill="#232F3E"/>
</svg>
