<svg width="36" height="31" viewBox="0 0 36 31" fill="none" xmlns="http://www.w3.org/2000/svg">
<path d="M24.4781 16.5871C25.3647 16.8424 26.2514 16.9719 27.1139 16.9719C28.4457 16.9719 29.5571 16.6676 30.4188 16.2948C29.5881 19.3363 27.5923 24.5841 23.6167 25.1751C23.2485 25.2299 22.9468 25.4961 22.8463 25.8545L21.9774 28.9624C21.9042 29.2252 21.9476 29.5065 22.0975 29.7346C22.2474 29.9627 22.4884 30.1149 22.7584 30.1519C23.0518 30.1919 23.3508 30.2123 23.6473 30.2123C28.4193 30.2123 33.1453 25.2314 35.1395 18.0995C36.3101 13.9154 36.6534 7.62489 33.7699 3.66547C32.1563 1.44992 29.8022 0.266817 26.7729 0.148619C26.7604 0.148241 26.7483 0.147865 26.7359 0.147865C22.9981 0.147865 19.6837 2.66513 18.6755 6.26883C18.0732 8.4232 18.3454 10.6825 19.4428 12.6322C20.5285 14.56 22.3165 15.9652 24.4781 16.5871Z" fill="white"/>
<path d="M1.07987 12.6319C2.16554 14.56 3.95359 15.9652 6.1151 16.5871C7.00177 16.8424 7.88843 16.9719 8.75054 16.9719C10.0824 16.9719 11.1941 16.6676 12.0559 16.2948C11.2251 19.3363 9.22937 24.5841 5.25337 25.1751C4.88519 25.2299 4.58384 25.4961 4.48302 25.8545L3.6141 28.9624C3.54084 29.2252 3.58427 29.5065 3.73419 29.7346C3.88373 29.9627 4.12465 30.1149 4.39503 30.1519C4.68807 30.1919 4.98714 30.2123 5.28396 30.2123C10.056 30.2123 14.782 25.2314 16.7766 18.0995C17.9468 13.9154 18.2901 7.62489 15.4062 3.66471C13.793 1.44954 11.4385 0.266056 8.40955 0.148237C8.39709 0.14786 8.385 0.147482 8.37216 0.147482C4.63482 0.147482 1.32004 2.66475 0.311785 6.26845C-0.28977 8.42282 -0.017128 10.6825 1.07987 12.6319Z" fill="white"/>
</svg>
