<svg width="36" height="31" viewBox="0 0 36 31" fill="none" xmlns="http://www.w3.org/2000/svg">
<path d="M11.5219 13.7722C10.6353 13.517 9.74863 13.3874 8.88614 13.3874C7.55426 13.3874 6.44291 13.6918 5.58117 14.0645C6.41194 11.0231 8.40769 5.77523 12.3833 5.18424C12.7515 5.12948 13.0532 4.86326 13.1537 4.50489L14.0226 1.39701C14.0958 1.13418 14.0524 0.85285 13.9025 0.624763C13.7526 0.396676 13.5116 0.244492 13.2416 0.207485C12.9482 0.167456 12.6492 0.147064 12.3527 0.147064C7.58069 0.147064 2.85473 5.12797 0.860498 12.2598C-0.310135 16.444 -0.653395 22.7345 2.23014 26.6939C3.84373 28.9095 6.19783 30.0926 9.22713 30.2108C9.23959 30.2111 9.25168 30.2115 9.26414 30.2115C13.0019 30.2115 16.3163 27.6942 17.3245 24.0905C17.9268 21.9362 17.6546 19.6768 16.5572 17.7271C15.4715 15.7994 13.6835 14.3942 11.5219 13.7722Z" fill="white"/>
<path d="M34.9201 17.7275C33.8345 15.7994 32.0464 14.3942 29.8849 13.7723C28.9982 13.517 28.1116 13.3874 27.2495 13.3874C25.9176 13.3874 24.8059 13.6918 23.9441 14.0645C24.7749 11.0231 26.7706 5.77523 30.7466 5.18424C31.1148 5.12948 31.4162 4.86326 31.517 4.50489L32.3859 1.39701C32.4592 1.13418 32.4157 0.85285 32.2658 0.624763C32.1163 0.396676 31.8753 0.244492 31.605 0.207485C31.3119 0.167456 31.0129 0.147064 30.716 0.147064C25.944 0.147064 21.218 5.12797 19.2234 12.2598C18.0532 16.444 17.7099 22.7345 20.5938 26.6947C22.207 28.9098 24.5615 30.0933 27.5905 30.2111C27.6029 30.2115 27.615 30.2119 27.6278 30.2119C31.3652 30.2119 34.68 27.6946 35.6882 24.0909C36.2898 21.9366 36.0171 19.6768 34.9201 17.7275Z" fill="white"/>
</svg>
