<svg width="64" height="64" viewBox="0 0 64 64" fill="none" xmlns="http://www.w3.org/2000/svg">
<path d="M63.7188 34.6778C62.3132 32.2467 60.9026 29.766 59.5383 27.367C58.1473 24.9208 56.7088 22.3913 55.2702 19.9045C55.0041 19.4492 54.5482 19.188 54.0196 19.188H36.8995C36.3609 19.188 35.9154 19.4424 35.6432 19.9083L32.0919 26.0479C31.8325 26.4963 31.9858 27.07 32.4343 27.3295C32.8828 27.5888 33.4565 27.4358 33.7159 26.9872L37.142 21.064H53.7737C55.1652 23.4718 56.5587 25.9224 57.9076 28.2944C59.2547 30.6633 60.6471 33.1117 62.0366 35.5166C59.3926 40.0863 56.7483 44.6534 54.1044 49.2201L53.7718 49.7944H37.1438C35.2244 46.4792 33.3067 43.1642 31.3883 39.8478L28.831 35.4276L31.5402 30.7472C31.7997 30.2988 31.6465 29.725 31.1982 29.4654C30.7502 29.2063 30.176 29.359 29.9164 29.8074L27.081 34.7058C26.8157 35.169 26.8172 35.6978 27.083 36.1525L29.7644 40.7871C31.7239 44.1746 33.6829 47.5608 35.6413 50.9433C35.9098 51.4122 36.3567 51.6704 36.8995 51.6704H54.0196C54.5523 51.6704 55.0097 51.4054 55.2721 50.9472L55.7279 50.1601C58.4306 45.4922 61.1333 40.8241 63.8338 36.1563C64.2087 35.5153 63.8544 34.9098 63.7188 34.6778Z" fill="#1E74DF"/>
<path d="M45.4785 45.5771C47.2015 45.5771 48.9472 45.1401 50.5437 44.2205C52.8995 42.8617 54.5834 40.6692 55.2852 38.0466C55.9856 35.4303 55.624 32.6982 54.2676 30.3537C51.4635 25.5072 45.2312 23.8403 40.375 26.6375C40.3747 26.6376 40.3746 26.6377 40.3745 26.6377C38.0181 27.997 36.3342 30.1901 35.633 32.8131C34.9336 35.4293 35.2963 38.1611 36.6542 40.5046C38.5359 43.757 41.961 45.5771 45.4785 45.5771ZM37.4453 33.2976C38.017 31.1596 39.3898 29.3717 41.3112 28.2631C45.2731 25.9812 50.3566 27.3403 52.6437 31.2931C53.7491 33.2036 54.0436 35.4297 53.473 37.5613C52.9007 39.6993 51.5276 41.4871 49.607 42.595C48.3044 43.3452 46.8811 43.7018 45.475 43.7017C42.6066 43.7015 39.8123 42.2168 38.2777 39.5645C37.1711 37.6547 36.8756 35.4291 37.4453 33.2976Z" fill="#1E74DF"/>
<path d="M25.765 19.0953C27.1427 19.0953 28.2636 17.9761 28.2636 16.6003V11.1344C28.2636 6.74669 24.6854 3.17694 20.287 3.17694H7.97312C3.57675 3.17694 0 6.74669 0 11.1344V16.6003C0 17.9761 1.11925 19.0953 2.495 19.0953H6.6795V23.7962L4.73987 24.0896C4.22762 24.1671 3.87525 24.6452 3.95275 25.1574C4.02313 25.6222 4.423 25.9552 4.879 25.9552C4.92563 25.9552 4.973 25.9517 5.0205 25.9446L6.67938 25.6936V29.4389L4.73975 29.7327C4.2275 29.8102 3.87512 30.2883 3.95275 30.8006C4.02313 31.2652 4.423 31.5983 4.87887 31.5983C4.92562 31.5983 4.973 31.5948 5.0205 31.5876L6.67925 31.3363V35.0788L4.73962 35.3722C4.22738 35.4497 3.875 35.9278 3.9525 36.4401C4.02288 36.9047 4.42275 37.2379 4.87875 37.2379C4.92537 37.2379 4.97275 37.2344 5.02025 37.2273L6.67912 36.9763V40.7221L4.7395 41.0154C4.22725 41.0929 3.87487 41.5711 3.95237 42.0833C4.02275 42.5481 4.42263 42.8812 4.87862 42.8812C4.92525 42.8812 4.97262 42.8777 5.02012 42.8706L6.679 42.6196V46.3649L4.73938 46.6587C4.22713 46.7362 3.87475 47.2143 3.95237 47.7266C4.02275 48.1912 4.42263 48.5243 4.8785 48.5243C4.92525 48.5243 4.97262 48.5208 5.02012 48.5136L6.67887 48.2623V51.2466L6.67875 51.2858C6.67737 51.6997 6.75737 51.9272 7.0185 52.2562L13.2786 60.2047C13.588 60.5977 14.0646 60.8231 14.586 60.8231H14.5861C15.1075 60.8231 15.5841 60.5977 15.8935 60.2049L22.1548 52.2593C22.4185 51.9274 22.4985 51.7001 22.4971 51.2859V45.8663L23.5196 45.7114C24.0319 45.6339 24.3843 45.1558 24.3066 44.6436C24.2291 44.1312 23.749 43.7792 23.2388 43.8566L22.4972 43.9688V40.2264L23.5196 40.0718C24.0319 39.9943 24.3842 39.5162 24.3067 39.0039C24.2292 38.4917 23.7505 38.1397 23.2389 38.2168L22.4972 38.3289V34.5833L23.5196 34.4287C24.0319 34.3512 24.3842 33.8731 24.3067 33.3608C24.2292 32.8484 23.7505 32.4966 23.2389 32.5737L22.4971 32.6858V28.9402L23.5196 28.7853C24.0319 28.7078 24.3843 28.2297 24.3066 27.7174C24.2291 27.2052 23.749 26.8532 23.2388 26.9304L22.4971 27.0428V23.3004L23.5195 23.1458C24.0318 23.0683 24.3841 22.5902 24.3066 22.0779C24.2291 21.5658 23.7504 21.2142 23.2388 21.2908L22.497 21.4031V19.0952H25.765V19.0953ZM20.6215 51.1747L14.5869 58.8329L8.5555 51.1748V47.9782L20.6215 46.1506V51.1747ZM20.6215 44.2532L8.5555 46.0808V42.3358L20.6215 40.5104V44.2532ZM20.6215 38.6131L8.5555 40.4383V36.6927L20.6215 34.8673V38.6131ZM20.6215 32.9698L8.5555 34.7951V31.0522L20.6215 29.2246V32.9698ZM20.6215 27.3272L8.5555 29.1548V25.4098L20.6215 23.5844V27.3272ZM20.6215 21.6871L8.5555 23.5123V19.0953H12.253C12.7711 19.0953 13.191 18.6754 13.191 18.1573C13.191 17.6392 12.7711 17.2193 12.253 17.2193H2.495C2.1595 17.2193 1.876 16.9358 1.876 16.6003V11.1344C1.876 7.78106 4.61112 5.05307 7.973 5.05307H20.2869C23.6507 5.05307 26.3875 7.78119 26.3875 11.1344V16.6003C26.3875 16.9358 26.1024 17.2193 25.765 17.2193H16.8459C16.3277 17.2193 15.9079 17.6392 15.9079 18.1573C15.9079 18.6754 16.3277 19.0953 16.8459 19.0953H20.6215V21.6871Z" fill="#1E74DF"/>
</svg>
