<svg width="16" height="16" viewBox="0 0 16 16" fill="none" xmlns="http://www.w3.org/2000/svg">
<path d="M15.5209 9.75334L14.0502 8.60334C14.0689 8.426 14.0849 8.21869 14.0849 7.99934C14.0849 7.78 14.0695 7.57269 14.0502 7.39534L15.5222 6.24469C15.7955 6.02869 15.8702 5.64534 15.6962 5.32603L14.1669 2.68C14.0035 2.38134 13.6455 2.228 13.2822 2.362L11.5469 3.05866C11.2142 2.81866 10.8655 2.616 10.5049 2.454L10.2409 0.613344C10.1975 0.264 9.89351 0 9.5342 0H6.46755C6.1082 0 5.80489 0.264 5.7622 0.608L5.49755 2.45534C5.1482 2.61269 4.80489 2.81269 4.45755 3.06L2.71755 2.36134C2.39152 2.23534 2.00152 2.37666 1.83951 2.674L0.308203 5.32334C0.127546 5.62869 0.202203 6.02534 0.481546 6.24669L1.9522 7.39669C1.92886 7.62134 1.91755 7.81669 1.91755 8.00003C1.91755 8.18338 1.92889 8.37869 1.9522 8.60403L0.480203 9.75469C0.206859 9.97134 0.132859 10.3547 0.306859 10.6733L1.8362 13.3193C1.99955 13.6173 2.3542 13.772 2.72086 13.6373L4.4562 12.9407C4.7882 13.18 5.13686 13.3827 5.49755 13.5453L5.76155 15.3853C5.80486 15.736 6.1082 16 6.4682 16H9.53486C9.8942 16 10.1982 15.736 10.2409 15.392L10.5055 13.5453C10.8549 13.3873 11.1975 13.188 11.5455 12.94L13.2855 13.6387C13.3695 13.6713 13.4569 13.688 13.5469 13.688C13.8055 13.688 14.0435 13.5467 14.1635 13.3267L15.6995 10.6667C15.8702 10.3547 15.7955 9.97134 15.5209 9.75334ZM8.00086 10.6667C6.5302 10.6667 5.3342 9.47066 5.3342 8C5.3342 6.52934 6.5302 5.33334 8.00086 5.33334C9.47151 5.33334 10.6675 6.52934 10.6675 8C10.6675 9.47066 9.47151 10.6667 8.00086 10.6667Z" fill="white"/>
</svg>
