<svg width="16" height="16" viewBox="0 0 16 16" fill="none" xmlns="http://www.w3.org/2000/svg">
<path d="M4.75102 10.5348H13.7107C14.7267 10.5348 15.5554 9.71929 15.5554 8.71963V5.01039V4.99724V4.97093C15.5554 4.96436 15.5554 4.95778 15.5521 4.9512C15.5521 4.94463 15.5488 4.93476 15.5488 4.92818C15.5488 4.92161 15.5454 4.91503 15.5454 4.90845C15.5421 4.90188 15.5421 4.8953 15.5387 4.88544C15.5354 4.87886 15.5354 4.87228 15.5321 4.86571C15.5287 4.85913 15.5287 4.85255 15.5254 4.84598C15.522 4.8394 15.5187 4.83282 15.5153 4.82296C15.512 4.81638 15.5087 4.8098 15.5053 4.80652L15.4953 4.78679C15.4919 4.78021 15.4886 4.77692 15.4853 4.77034C15.4819 4.76377 15.4752 4.75719 15.4719 4.75061C15.4686 4.74404 15.4652 4.74075 15.4585 4.73417C15.4552 4.7276 15.4485 4.72431 15.4452 4.71773C15.4418 4.71115 15.4351 4.70787 15.4318 4.70129C15.4285 4.69471 15.4218 4.69142 15.4184 4.68814L15.4017 4.67169C15.395 4.66841 15.3917 4.66183 15.385 4.65854C15.3783 4.65525 15.3716 4.64868 15.365 4.64539C15.3583 4.6421 15.3549 4.63881 15.3482 4.63552C15.3416 4.63223 15.3349 4.62895 15.3282 4.62237L15.3081 4.6125L15.2881 4.60264L15.268 4.59277C15.2614 4.58949 15.2547 4.58949 15.248 4.5862C15.2413 4.58291 15.2313 4.57962 15.2246 4.57962C15.2179 4.57962 15.2112 4.57633 15.2079 4.57633C15.1979 4.57304 15.1912 4.57304 15.1812 4.57304C15.1778 4.57304 15.1745 4.56976 15.1678 4.56976L3.81195 3.02753V1.46886C3.81195 1.45242 3.81195 1.43597 3.8086 1.42282C3.8086 1.41953 3.8086 1.41624 3.80526 1.40967C3.80526 1.3998 3.80192 1.38994 3.80192 1.38007C3.79858 1.37021 3.79858 1.36363 3.79524 1.35377C3.79524 1.34719 3.79189 1.3439 3.79189 1.33732L3.78187 1.30773C3.78187 1.30444 3.77853 1.29786 3.77853 1.29458C3.77518 1.28471 3.77184 1.27813 3.76516 1.26827C3.76182 1.26498 3.76182 1.2584 3.75847 1.25512C3.75513 1.24854 3.75179 1.24196 3.74511 1.23539C3.74177 1.22881 3.73842 1.22552 3.73508 1.21894C3.73174 1.21237 3.7284 1.20908 3.72506 1.2025C3.72171 1.19593 3.71503 1.18935 3.71169 1.18277L3.70166 1.17291L3.68161 1.15318L3.67158 1.14331C3.6649 1.13674 3.65822 1.13016 3.64819 1.12358C3.64485 1.12029 3.63817 1.11701 3.63482 1.11372C3.62814 1.10714 3.62146 1.10385 3.61477 1.09728C3.60475 1.0907 3.59472 1.08412 3.58804 1.08083C3.58469 1.07755 3.58135 1.07755 3.57801 1.07426C3.56464 1.06768 3.54793 1.0611 3.53457 1.05453L1.07157 0.0351441C0.84098 -0.0602176 0.576968 0.0450091 0.480053 0.271904C0.383137 0.498799 0.490078 0.758577 0.720671 0.853939L2.90629 1.76152V3.77398V4.09295V6.53947V8.72621V11.4884C2.90629 12.4091 3.60809 13.172 4.51375 13.2871C4.34999 13.5568 4.25308 13.8724 4.25308 14.2079C4.25308 15.1976 5.07185 16 6.07442 16C7.077 16 7.89577 15.1944 7.89577 14.2079C7.89577 13.879 7.80554 13.5666 7.64513 13.3036H11.7022C11.5418 13.5699 11.4516 13.879 11.4516 14.2079C11.4516 15.1976 12.2703 16 13.2729 16C14.2755 16 15.0943 15.1944 15.0943 14.2079C15.0943 13.2214 14.2755 12.4157 13.2729 12.4157H4.75102C4.22968 12.4157 3.8086 11.9981 3.8086 11.4884V10.2849C4.08264 10.4427 4.40681 10.5348 4.75102 10.5348Z" fill="white"/>
</svg>
