<svg width="16" height="16" viewBox="0 0 16 16" fill="none" xmlns="http://www.w3.org/2000/svg">
<path d="M7.92017 0C5.59395 0 3.70142 1.89253 3.70142 4.21875C3.70142 6.54497 5.59395 8.4375 7.92017 8.4375C10.2464 8.4375 12.1389 6.54497 12.1389 4.21875C12.1389 1.89253 10.2464 0 7.92017 0Z" fill="white"/>
<path d="M13.1691 11.1936C12.0141 10.0208 10.4829 9.375 8.85767 9.375H6.98267C5.35742 9.375 3.82623 10.0208 2.67123 11.1936C1.52188 12.3606 0.888916 13.901 0.888916 15.5312C0.888916 15.7901 1.09879 16 1.35767 16H14.4827C14.7415 16 14.9514 15.7901 14.9514 15.5312C14.9514 13.901 14.3184 12.3606 13.1691 11.1936Z" fill="white"/>
</svg>
