<svg width="24" height="9" viewBox="0 0 24 9" fill="none" xmlns="http://www.w3.org/2000/svg">
<path fill-rule="evenodd" clip-rule="evenodd" d="M17.361 1.15467L17.0832 2.80144C16.2502 2.33067 14.3544 2.21929 14.3542 3.08636C14.3542 3.43083 14.7831 3.66772 15.3001 3.95325C16.0842 4.38628 17.0708 4.93116 17.0708 6.13272C17.0708 8.05272 15.0668 8.75816 13.7384 8.75816C12.4104 8.75816 11.5412 8.32513 11.5412 8.32513L11.8306 6.60329C12.6276 7.25949 15.0426 7.44595 15.0426 6.40534C15.0426 5.96807 14.5672 5.71019 14.0159 5.41116C13.2553 4.99857 12.3502 4.50763 12.3502 3.35898C12.3502 1.25334 14.6442 0.820312 15.6102 0.820312C16.5038 0.820312 17.361 1.15467 17.361 1.15467ZM23.856 8.62585H22.0686L21.8406 7.48677H19.366L18.9602 8.62585H16.931L19.8342 1.52862C19.8342 1.52862 20.0102 0.957133 20.7328 0.957133H22.2976L23.856 8.62585ZM6.7576 0.957338L4.9018 6.2318L4.6822 5.096L4.6824 5.09642L4.0274 1.6478C4.0274 1.6478 3.9482 0.957338 3.104 0.957338H0.036L0 1.08718C0 1.08718 0.9382 1.28739 2.0362 1.9637L3.7274 8.62606H5.7556L8.8526 0.957338H6.7576ZM10.3418 8.62585H8.3952L9.6118 0.957338H11.5586L10.3418 8.62585ZM19.9266 5.91324L20.9494 3.04349L21.5248 5.91324H19.9266Z" fill="#2566AF"/>
<path d="M4.6824 5.09611L4.0274 1.64749C4.0274 1.64749 3.9482 0.957031 3.104 0.957031H0.036L0 1.08688C0 1.08688 1.4746 1.40031 2.889 2.57467C4.2414 3.69713 4.6824 5.09611 4.6824 5.09611Z" fill="#E6A540"/>
</svg>
