<svg width="64" height="64" viewBox="0 0 64 64" fill="none" xmlns="http://www.w3.org/2000/svg">
<g clip-path="url(#clip0)">
<path d="M63.2677 59.7309L45.2112 41.6744C53.4379 31.665 52.8782 16.8064 43.5298 7.45817C33.5849 -2.48671 17.4035 -2.48671 7.45866 7.45817C-2.48622 17.403 -2.48622 33.5844 7.45866 43.5293C16.8044 52.875 31.6612 53.4409 41.6749 45.2107L59.7314 63.2672C60.7079 64.2437 62.291 64.2437 63.2675 63.2672C64.2442 62.2905 64.2442 60.7074 63.2677 59.7309ZM39.9937 39.993C31.9987 47.988 18.9899 47.9879 10.9949 39.993C2.99991 31.998 2.99991 18.9893 10.9949 10.9943C18.9897 2.99967 31.9984 2.99904 39.9937 10.9943C47.9887 18.9893 47.9887 31.998 39.9937 39.993Z" fill="#1E74DF"/>
<path d="M37.7365 22.9936H27.994V13.2511C27.994 11.8701 26.8745 10.7506 25.4935 10.7506C24.1125 10.7506 22.993 11.8701 22.993 13.2511V22.9936H13.2505C11.8695 22.9936 10.75 24.1131 10.75 25.4941C10.75 26.8751 11.8695 27.9946 13.2505 27.9946H22.993V37.7371C22.993 39.1181 24.1125 40.2376 25.4935 40.2376C26.8745 40.2376 27.994 39.1181 27.994 37.7371V27.9946H37.7365C39.1175 27.9946 40.237 26.8751 40.237 25.4941C40.237 24.1131 39.1175 22.9936 37.7365 22.9936Z" fill="#1E74DF"/>
</g>
<defs>
<clipPath id="clip0">
<rect width="64" height="64" fill="white"/>
</clipPath>
</defs>
</svg>
